# xmcd
#
# Track frame offsets:
#	187
#	12585
#	20872
#	30495
#	41695
#	52745
#	68655
#	80765
#	91745
#	102497
#	113870
#	125177
#	137107
#	150252
#	159402
#	172022
#
# Disc length: 2429 seconds
#
# Revision: 1
# Processed by: cddbd v1.5PL3 Copyright (c) Steve Scherf et al.
# Submitted via: CDex 1.50Beta5
#
DISCID=d0097b10
DTITLE=ザ・スパイダース - ザ・スパイダースNEW BEST
DYEAR=1900
DGENRE=Japanese Rock
TTITLE0=ノー・ノー・ボーイ
TTITLE1=ヘイ・ボーイ
TTITLE2=サマー・ガール
TTITLE3=夕陽が泣いている
TTITLE4=なんとなくなんとなく
TTITLE5=太陽の翼
TTITLE6=風が泣いている
TTITLE7=恋のドクター
TTITLE8=いつまでもどこまでも
TTITLE9=バン・バン・バン
TTITLE10=あの時君は若かった
TTITLE11=真珠の涙
TTITLE12=エレクトリックおばあちゃん
TTITLE13=ロビー・ロビー
TTITLE14=夢のDC8
TTITLE15=メラ・メラ
EXTD=
EXTT0=
EXTT1=
EXTT2=
EXTT3=
EXTT4=
EXTT5=
EXTT6=
EXTT7=
EXTT8=
EXTT9=
EXTT10=
EXTT11=
EXTT12=
EXTT13=
EXTT14=
EXTT15=
PLAYORDER=
